<svg id="그룹_58" data-name="그룹 58" xmlns="http://www.w3.org/2000/svg" width="154.762" height="40.002" viewBox="0 0 154.762 40.002">
  <path id="패스_64" data-name="패스 64" d="M214.651,60.08l-8.868,13.8L204.3,60.08l-7.932-8.944L197.6,61.771l3.554,29.366L221.552,60.08Z" transform="translate(-196.366 -51.136)" fill="#be1622"/>
  <path id="패스_65" data-name="패스 65" d="M313.523,63.732q2.312-8.627-6.315-8.627H285.452l1.1,1.5L282,61.384,279.464,55.1H263.107l-7.486,8.627L253.2,66.319l3-11.214H247.58l1.26,1.724-4.158,15.53H238.3L242.922,55.1H234.3l1.26,1.724-5.346,19.965L228.273,55.1h-8.559l.881,1.19L201.149,86.162l11.131-6.9,10.229-15.527.451,6.9h-3.193l-4.469,6.9h8.126l.1,1.724h12.924l8.093-6.384-1.708,6.384h6.9l2.4-8.92,14.734,15.823-4.71-14.648-1.4-4.66,10.914-11.685,4.96,12.014L265.178,79.259h7.885l21.389-22.721.212.291-6,22.43h6.9l4.624-17.254h5.177q1.727,0,1.26,1.726a2.089,2.089,0,0,1-2.193,1.724h-3.484l-1.6,6.161L312.7,86.162l-4.71-14.648q3.691-.882,5.537-7.782" transform="translate(-190.37 -46.16)" fill="#be1622"/>
  <path id="패스_66" data-name="패스 66" d="M254.862,55.1l1.26,1.726-6,22.43h6.9l6.47-24.156Z" transform="translate(-128.983 -46.16)" fill="#be1622"/>
  <path id="패스_67" data-name="패스 67" d="M275.267,69.929H264.914l.932-3.45h8.627l.518-1.938,0,.005,3.481-13.009-6.449,8.039H259.065l1.26,1.726-6,22.43h15.529l1.846-6.9h-8.626l.465-1.726Z" transform="translate(-123.714 -50.632)" fill="#be1622"/>
</svg>
