<svg xmlns="http://www.w3.org/2000/svg" width="189.089" height="48.875" viewBox="0 0 189.089 48.875">
  <g id="그룹_59" data-name="그룹 59" transform="translate(-196.366 -51.136)">
    <g id="그룹_58" data-name="그룹 58" transform="translate(196.366 51.136)">
      <path id="패스_64" data-name="패스 64" d="M218.707,62.064,207.871,78.929l-1.813-16.865-9.692-10.928,1.513,12.994,4.343,35.88,24.917-37.946Z" transform="translate(-196.366 -51.136)" fill="#be1622"/>
      <path id="패스_65" data-name="패스 65" d="M338.448,65.645q2.825-10.54-7.715-10.54H304.151l1.349,1.834-5.565,5.837-3.1-7.671H276.85L267.7,65.645l-2.955,3.161,3.67-13.7h-10.54l1.539,2.106-5.08,18.974h-7.8l5.65-21.081h-10.54l1.539,2.106L236.655,81.6,234.29,55.1H223.832l1.077,1.454-23.76,36.492,13.6-8.434,12.5-18.971.551,8.431h-3.9l-5.46,8.434h9.929l.127,2.106h15.791l9.888-7.8-2.087,7.8h8.431l2.93-10.9,18,19.332-5.755-17.9-1.707-5.694,13.335-14.277,6.06,14.679-14,14.756h9.634l26.133-27.761.259.355-7.335,27.405H316.5l5.65-21.081h6.325q2.111,0,1.539,2.109a2.552,2.552,0,0,1-2.679,2.106h-4.257l-1.961,7.528,16.317,17.771-5.755-17.9q4.51-1.078,6.765-9.508" transform="translate(-187.979 -44.176)" fill="#be1622"/>
      <path id="패스_66" data-name="패스 66" d="M255.915,55.1l1.539,2.108-7.336,27.405h8.432L266.455,55.1Z" transform="translate(-102.114 -44.176)" fill="#be1622"/>
      <path id="패스_67" data-name="패스 67" d="M279.913,74.008H267.264l1.139-4.216h10.541l.633-2.367,0,.006,4.253-15.894-7.88,9.822H260.118l1.539,2.108-7.336,27.405h18.973l2.255-8.432h-10.54l.568-2.108Z" transform="translate(-94.744 -50.432)" fill="#be1622"/>
    </g>
  </g>
</svg>
